<svg width="339" height="109" viewBox="0 0 339 109" fill="none" xmlns="http://www.w3.org/2000/svg">
<path d="M35.0724 54.5335C35.0724 58.3928 31.7707 55.2383 27.7277 55.2383C23.6511 55.2383 20.3494 58.3257 20.3494 54.4328C20.3494 50.5735 23.6848 47.4525 27.7614 47.4861C31.838 47.4861 35.1061 50.6742 35.0724 54.5335Z" fill="white"/>
<path d="M64.4847 54.7015C64.4847 58.5608 61.183 55.4062 57.1401 55.4062C53.0634 55.4062 49.7617 58.4937 49.7617 54.6008C49.7617 50.7415 53.0971 47.6205 57.1738 47.6541C61.2504 47.6876 64.5184 50.8422 64.4847 54.7015Z" fill="white"/>
<path d="M84.4636 40.3383C83.2507 39.1972 81.7683 38.3918 80.1849 37.9556C76.1419 29.9685 68.7973 23.5587 59.6333 20.035L64.0468 9.29607C65.7314 9.06116 67.2475 8.02083 67.9213 6.40999C68.393 5.23542 68.3593 3.96017 67.8539 2.81916C67.3148 1.67815 66.3378 0.772059 65.1249 0.33579C63.8784 -0.134038 62.5307 -0.100478 61.3178 0.402908C60.105 0.906295 59.1616 1.84595 58.6899 2.98696C58.0161 4.63136 58.3867 6.40999 59.4985 7.68524L55.0176 18.5584C51.48 17.6187 47.7403 17.1153 43.8321 17.0818C40.4967 17.0818 37.2624 17.4509 34.1291 18.1221L31.4001 11.2761C31.7033 10.9405 32.0066 10.6384 32.175 10.2357C32.7141 9.09472 32.7478 7.81947 32.2761 6.6449C31.8044 5.47033 30.8948 4.53068 29.6819 4.02729C28.469 3.52391 27.1213 3.45679 25.8748 3.92661C24.6282 4.36288 23.6512 5.23542 23.1121 6.37643C22.573 7.51744 22.5394 8.79269 23.011 9.96726C23.4827 11.1418 24.3924 12.0815 25.6052 12.5849C26.0095 12.7527 26.4138 12.8533 26.8518 12.9205L29.446 19.3974C19.6082 22.6526 11.6234 29.2302 7.27728 37.5528C5.66011 37.9556 4.1777 38.7274 2.96482 39.8684C1.11181 41.6135 0.0673822 43.9626 0.0673822 46.446L0 58.5609C0 61.0442 0.977042 63.3934 2.83005 65.172C4.21139 66.5144 5.96333 67.3869 7.88372 67.7561C14.4198 79.2333 27.8625 87.1532 43.4615 87.2203C59.0605 87.2875 72.6044 79.5353 79.2415 68.1252C81.1619 67.7896 82.9138 66.9171 84.3289 65.6083C86.1819 63.8632 87.2263 61.5141 87.2263 59.0307L87.2937 46.9158C87.2937 44.4325 86.3166 42.0833 84.4636 40.3047V40.3383ZM84.969 58.8629C84.969 62.8229 81.7346 66.0445 77.7591 66.0445H9.56828C5.59272 66.0445 2.35838 62.8229 2.35838 58.8629V58.5609V57.9232V46.5802C2.35838 42.6203 5.59272 39.3986 9.56828 39.3986H77.7591C81.7346 39.3986 84.969 42.6203 84.969 46.5802V58.8629Z" fill="white"/>
<g clip-path="url(#clip0_32802_82)">
<path d="M303.938 50.1211L308.45 61.8662L323.29 23.0068H339L324.694 61.8662L317.775 79.8525L307.38 107H291.671L300.862 81.5635L277.833 23.0068H293.543L303.938 50.1211ZM131.567 21.0273C136.046 21.0274 140.023 21.7317 143.466 23.1074C146.942 24.4832 149.716 26.4293 151.855 28.9795C153.995 31.5298 155.298 34.5505 155.8 38.0068L141.126 40.6582C140.892 38.5441 139.957 36.8656 138.386 35.624C136.781 34.3824 134.642 33.6447 131.935 33.4434C129.294 33.2756 127.188 33.6441 125.584 34.5166C123.98 35.4226 123.178 36.6649 123.178 38.3428C123.178 39.3157 123.512 40.1542 124.214 40.8252C124.916 41.4963 126.32 42.2016 128.492 42.9062C130.631 43.6109 133.94 44.5173 138.386 45.6582C142.697 46.7991 146.207 48.1071 148.814 49.6172C151.455 51.1272 153.293 52.8391 154.496 54.9531C155.699 57.0672 156.301 59.5838 156.301 62.5703C156.301 68.4428 154.162 73.074 149.95 76.4297C145.705 79.7852 139.588 81.4629 132.402 81.4629C125.216 81.4628 119.4 79.8185 114.988 76.5635C110.576 73.3085 107.87 68.6779 106.934 62.7051L121.606 60.4902C122.208 63.1747 123.512 65.2888 125.584 66.7988C127.656 68.3088 130.263 69.08 133.438 69.0801C136.046 69.0801 138.051 68.577 139.455 67.5703C140.859 66.5637 141.56 65.1546 141.561 63.3428C141.561 62.2354 141.294 61.3287 140.726 60.624C140.157 59.9193 138.887 59.2483 136.948 58.5771C134.976 57.906 131.934 57.0331 127.823 55.9258C123.178 54.7178 119.468 53.3758 116.693 51.8994C113.919 50.4229 111.913 48.644 110.677 46.5635C109.44 44.483 108.838 41.9663 108.838 39.0469C108.838 35.3894 109.774 32.2014 111.646 29.4834C113.517 26.7988 116.125 24.7177 119.534 23.2412C122.943 21.7647 127.089 21.0273 131.567 21.0273ZM178.629 42.335L192.166 23.0068H210.215L189.291 52.0664L211.585 81.1611H192.601L178.629 61.6309V81.1611H163.722L163.821 2.06738H178.629V42.335ZM230.203 81.1611H215.63V23.0068H230.203V81.1611ZM252.13 81.1611H237.557V2H252.13V81.1611ZM274.09 81.1611H259.517V2H274.09V81.1611ZM215.83 11.1611C214.527 5.69133 219.307 0.92565 224.722 2.23438C227.262 2.8384 229.367 4.95283 229.969 7.50293C231.272 12.9727 226.493 17.7384 221.078 16.4297C218.538 15.8257 216.432 13.7115 215.83 11.1611Z" fill="white"/>
</g>
<defs>
<clipPath id="clip0_32802_82">
<rect width="232" height="105" fill="white" transform="translate(107 2)"/>
</clipPath>
</defs>
</svg>
